#Comment line ignore any data following # character 
#Hierarchical Translation and Rotation (.htr) file 
[Header]	
#Header keywords are followed by a single value 
FileType HTR		#Single word string
DataType HTRS		#Translation followed by rotation and scale data
FileVersion 1		#integer
NumSegments 84		#integer
NumFrames 2		#integer
DataFrameRate 30		#integer, data frame rate in this file
EulerRotationOrder ZYX
CalibrationUnits mm
RotationUnits Degrees
GlobalAxisofGravity Y
BoneLengthAxis Y
ScaleFactor 1.00
[SegmentNames&Hierarchy]
#CHILD	PARENT
MASTER GLOBAL
root MASTER
chest root
L_mid_tent01 root
R_mid_tent01 root
spine01 root
Bip01_Neck chest
L_humerus chest
R_humerus chest
weapon_bone chest
Bip01_Head Bip01_Neck
eye_left_bone Bip01_Head
eye_right_bone Bip01_Head
L_forearm L_humerus
L_front_hand L_forearm
L_weapon_bone L_forearm
L_front_hand01_01 L_front_hand
L_front_hand02_01 L_front_hand
L_front_hand03_01 L_front_hand
L_front_hand01_02 L_front_hand01_01
L_front_hand02_02 L_front_hand02_01
L_front_hand03_02 L_front_hand03_01
R_forearm R_humerus
R_front_hand R_forearm
R_weapon_bone R_forearm
R_front_hand01_01 R_front_hand
R_front_hand02_01 R_front_hand
R_front_hand03_01 R_front_hand
R_front_hand01_02 R_front_hand01_01
R_front_hand02_02 R_front_hand02_01
R_front_hand03_02 R_front_hand03_01
null_rope01_connect L_mid_tent01
Rope1_Seg01 null_rope01_connect
Rope1_Seg02 Rope1_Seg01
Rope1_Seg03 Rope1_Seg02
Rope1_Seg04 Rope1_Seg03
Rope1_Seg05 Rope1_Seg04
Rope1_Seg06 Rope1_Seg05
Rope1_Seg07 Rope1_Seg06
Rope1_Seg09 Rope1_Seg07
L_mid_hand01 Rope1_Seg09
L_mid_hand02 Rope1_Seg09
L_mid_hand03 Rope1_Seg09
null_rope02_connect R_mid_tent01
Rope2_Seg01 null_rope02_connect
Rope2_Seg02 Rope2_Seg01
Rope2_Seg03 Rope2_Seg02
Rope2_Seg04 Rope2_Seg03
Rope2_Seg05 Rope2_Seg04
Rope2_Seg06 Rope2_Seg05
Rope2_Seg07 Rope2_Seg06
Rope2_Seg09 Rope2_Seg07
R_mid_hand01 Rope2_Seg09
R_mid_hand02 Rope2_Seg09
R_mid_hand03 Rope2_Seg09
spine02 spine01
spine03 spine02
pelvis spine03
null_rope03_connect pelvis
null_rope04_connect pelvis
Rope3_Seg01 null_rope03_connect
Rope3_Seg02 Rope3_Seg01
Rope3_Seg03 Rope3_Seg02
Rope3_Seg04 Rope3_Seg03
Rope3_Seg05 Rope3_Seg04
Rope3_Seg06 Rope3_Seg05
Rope3_Seg07 Rope3_Seg06
Rope3_Seg08 Rope3_Seg07
Rope3_Seg09 Rope3_Seg08
R_rear_hand01 Rope3_Seg09
R_rear_hand02 Rope3_Seg09
R_rear_hand03 Rope3_Seg09
Rope4_Seg01 null_rope04_connect
Rope4_Seg02 Rope4_Seg01
Rope4_Seg03 Rope4_Seg02
Rope4_Seg04 Rope4_Seg03
Rope4_Seg05 Rope4_Seg04
Rope4_Seg06 Rope4_Seg05
Rope4_Seg07 Rope4_Seg06
Rope4_Seg08 Rope4_Seg07
Rope4_Seg09 Rope4_Seg08
L_rear_hand01 Rope4_Seg09
L_rear_hand02 Rope4_Seg09
L_rear_hand03 Rope4_Seg09
[BasePosition]
#SegmentName Tx, Ty, Tz, Rx, Ry, Rz, BoneLength
MASTER 0.000000 0.000000 0.000000 -90.000000 0.000000 0.000000 10.000000 
root 0.000000 0.000000 0.000000 0.000000 0.000000 0.000000 10.000000 
chest 0.000000 0.000000 0.000000 0.000000 0.000000 0.000000 10.000000 
L_mid_tent01 0.000000 0.000000 0.000000 0.000000 0.000000 0.000000 10.000000 
R_mid_tent01 0.000000 0.000000 0.000000 0.000000 0.000000 0.000000 10.000000 
spine01 0.000000 0.000000 0.000000 0.000000 0.000000 0.000000 10.000000 
Bip01_Neck 0.000000 0.000000 0.000000 0.000000 0.000000 0.000000 10.000000 
L_humerus 0.000000 0.000000 0.000000 0.000000 0.000000 0.000000 10.000000 
R_humerus 0.000000 0.000000 0.000000 0.000000 0.000000 0.000000 10.000000 
weapon_bone 0.000000 0.000000 0.000000 0.000000 0.000000 0.000000 10.000000 
Bip01_Head 0.000000 0.000000 0.000000 0.000000 0.000000 0.000000 10.000000 
eye_left_bone 0.000000 0.000000 0.000000 0.000000 0.000000 0.000000 10.000000 
eye_right_bone 0.000000 0.000000 0.000000 0.000000 0.000000 0.000000 10.000000 
L_forearm 0.000000 0.000000 0.000000 0.000000 0.000000 0.000000 10.000000 
L_front_hand 0.000000 0.000000 0.000000 0.000000 0.000000 0.000000 10.000000 
L_weapon_bone 0.000000 0.000000 0.000000 0.000000 0.000000 0.000000 10.000000 
L_front_hand01_01 0.000000 0.000000 0.000000 0.000000 0.000000 0.000000 10.000000 
L_front_hand02_01 0.000000 0.000000 0.000000 0.000000 0.000000 0.000000 10.000000 
L_front_hand03_01 0.000000 0.000000 0.000000 0.000000 0.000000 0.000000 10.000000 
L_front_hand01_02 0.000000 0.000000 0.000000 0.000000 0.000000 0.000000 10.000000 
L_front_hand02_02 0.000000 0.000000 0.000000 0.000000 0.000000 0.000000 10.000000 
L_front_hand03_02 0.000000 0.000000 0.000000 0.000000 0.000000 0.000000 10.000000 
R_forearm 0.000000 0.000000 0.000000 0.000000 0.000000 0.000000 10.000000 
R_front_hand 0.000000 0.000000 0.000000 0.000000 0.000000 0.000000 10.000000 
R_weapon_bone 0.000000 0.000000 0.000000 0.000000 0.000000 0.000000 10.000000 
R_front_hand01_01 0.000000 0.000000 0.000000 0.000000 0.000000 0.000000 10.000000 
R_front_hand02_01 0.000000 0.000000 0.000000 0.000000 0.000000 0.000000 10.000000 
R_front_hand03_01 0.000000 0.000000 0.000000 0.000000 0.000000 0.000000 10.000000 
R_front_hand01_02 0.000000 0.000000 0.000000 0.000000 0.000000 0.000000 10.000000 
R_front_hand02_02 0.000000 0.000000 0.000000 0.000000 0.000000 0.000000 10.000000 
R_front_hand03_02 0.000000 0.000000 0.000000 0.000000 0.000000 0.000000 10.000000 
null_rope01_connect 0.000000 0.000000 0.000000 0.000000 0.000000 0.000000 10.000000 
Rope1_Seg01 0.000000 0.000000 0.000000 0.000000 0.000000 0.000000 10.000000 
Rope1_Seg02 0.000000 0.000000 0.000000 0.000000 0.000000 0.000000 10.000000 
Rope1_Seg03 0.000000 0.000000 0.000000 0.000000 0.000000 0.000000 10.000000 
Rope1_Seg04 0.000000 0.000000 0.000000 0.000000 0.000000 0.000000 10.000000 
Rope1_Seg05 0.000000 0.000000 0.000000 0.000000 0.000000 0.000000 10.000000 
Rope1_Seg06 0.000000 0.000000 0.000000 0.000000 0.000000 0.000000 10.000000 
Rope1_Seg07 0.000000 0.000000 0.000000 0.000000 0.000000 0.000000 10.000000 
Rope1_Seg09 0.000000 0.000000 0.000000 0.000000 0.000000 0.000000 10.000000 
L_mid_hand01 0.000000 0.000000 0.000000 0.000000 0.000000 0.000000 10.000000 
L_mid_hand02 0.000000 0.000000 0.000000 0.000000 0.000000 0.000000 10.000000 
L_mid_hand03 0.000000 0.000000 0.000000 0.000000 0.000000 0.000000 10.000000 
null_rope02_connect 0.000000 0.000000 0.000000 0.000000 0.000000 0.000000 10.000000 
Rope2_Seg01 0.000000 0.000000 0.000000 0.000000 0.000000 0.000000 10.000000 
Rope2_Seg02 0.000000 0.000000 0.000000 0.000000 0.000000 0.000000 10.000000 
Rope2_Seg03 0.000000 0.000000 0.000000 0.000000 0.000000 0.000000 10.000000 
Rope2_Seg04 0.000000 0.000000 0.000000 0.000000 0.000000 0.000000 10.000000 
Rope2_Seg05 0.000000 0.000000 0.000000 0.000000 0.000000 0.000000 10.000000 
Rope2_Seg06 0.000000 0.000000 0.000000 0.000000 0.000000 0.000000 10.000000 
Rope2_Seg07 0.000000 0.000000 0.000000 0.000000 0.000000 0.000000 10.000000 
Rope2_Seg09 0.000000 0.000000 0.000000 0.000000 0.000000 0.000000 10.000000 
R_mid_hand01 0.000000 0.000000 0.000000 0.000000 0.000000 0.000000 10.000000 
R_mid_hand02 0.000000 0.000000 0.000000 0.000000 0.000000 0.000000 10.000000 
R_mid_hand03 0.000000 0.000000 0.000000 0.000000 0.000000 0.000000 10.000000 
spine02 0.000000 0.000000 0.000000 0.000000 0.000000 0.000000 10.000000 
spine03 0.000000 0.000000 0.000000 0.000000 0.000000 0.000000 10.000000 
pelvis 0.000000 0.000000 0.000000 0.000000 0.000000 0.000000 10.000000 
null_rope03_connect 0.000000 0.000000 0.000000 0.000000 0.000000 0.000000 10.000000 
null_rope04_connect 0.000000 0.000000 0.000000 0.000000 0.000000 0.000000 10.000000 
Rope3_Seg01 0.000000 0.000000 0.000000 0.000000 0.000000 0.000000 10.000000 
Rope3_Seg02 0.000000 0.000000 0.000000 0.000000 0.000000 0.000000 10.000000 
Rope3_Seg03 0.000000 0.000000 0.000000 0.000000 0.000000 0.000000 10.000000 
Rope3_Seg04 0.000000 0.000000 0.000000 0.000000 0.000000 0.000000 10.000000 
Rope3_Seg05 0.000000 0.000000 0.000000 0.000000 0.000000 0.000000 10.000000 
Rope3_Seg06 0.000000 0.000000 0.000000 0.000000 0.000000 0.000000 10.000000 
Rope3_Seg07 0.000000 0.000000 0.000000 0.000000 0.000000 0.000000 10.000000 
Rope3_Seg08 0.000000 0.000000 0.000000 0.000000 0.000000 0.000000 10.000000 
Rope3_Seg09 0.000000 0.000000 0.000000 0.000000 0.000000 0.000000 10.000000 
R_rear_hand01 0.000000 0.000000 0.000000 0.000000 0.000000 0.000000 10.000000 
R_rear_hand02 0.000000 0.000000 0.000000 0.000000 0.000000 0.000000 10.000000 
R_rear_hand03 0.000000 0.000000 0.000000 0.000000 0.000000 0.000000 10.000000 
Rope4_Seg01 0.000000 0.000000 0.000000 0.000000 0.000000 0.000000 10.000000 
Rope4_Seg02 0.000000 0.000000 0.000000 0.000000 0.000000 0.000000 10.000000 
Rope4_Seg03 0.000000 0.000000 0.000000 0.000000 0.000000 0.000000 10.000000 
Rope4_Seg04 0.000000 0.000000 0.000000 0.000000 0.000000 0.000000 10.000000 
Rope4_Seg05 0.000000 0.000000 0.000000 0.000000 0.000000 0.000000 10.000000 
Rope4_Seg06 0.000000 0.000000 0.000000 0.000000 0.000000 0.000000 10.000000 
Rope4_Seg07 0.000000 0.000000 0.000000 0.000000 0.000000 0.000000 10.000000 
Rope4_Seg08 0.000000 0.000000 0.000000 0.000000 0.000000 0.000000 10.000000 
Rope4_Seg09 0.000000 0.000000 0.000000 0.000000 0.000000 0.000000 10.000000 
L_rear_hand01 0.000000 0.000000 0.000000 0.000000 0.000000 0.000000 10.000000 
L_rear_hand02 0.000000 0.000000 0.000000 0.000000 0.000000 0.000000 10.000000 
L_rear_hand03 0.000000 0.000000 0.000000 0.000000 0.000000 0.000000 10.000000 
#Beginning of Data. Separated by tabs
#Fr	Tx	Ty	Tz	Rx	Ry	Rz	SF
[MASTER]
7 0.000000 0.000000 0.000000 0.001660 0.001660 0.001660 0.000000
8 0.000000 0.000000 0.000000 0.001660 0.001660 0.001660 0.000000
[root]
7 -27.884632 -56.740528 1501.395752 -78.216667 -39.024372 -87.973343 1502.726196
8 -27.884632 -56.740528 1501.395752 -78.216667 -39.024368 -87.973343 1502.726196
[chest]
7 -84.512650 -34.090519 0.000000 -2.594532 -0.201363 179.701126 91.129311
8 -84.512650 -34.090519 0.000000 -2.594532 -0.201363 179.701126 91.129311
[L_mid_tent01]
7 27.299511 22.177458 -249.918259 3.862628 36.229202 81.347610 252.381134
8 27.299511 22.177458 -249.918259 3.862628 36.229202 81.347610 252.381134
[R_mid_tent01]
7 23.228794 24.509907 226.238495 160.432037 -47.061241 87.899765 228.744751
8 23.228794 24.509907 226.238495 160.432022 -47.061226 87.899765 228.744751
[spine01]
7 -0.361383 -0.195265 0.000000 0.002062 0.001122 32.879829 0.410763
8 -0.361383 -0.195265 0.000000 0.002062 0.001122 32.879822 0.410763
[Bip01_Neck]
7 165.484543 71.581718 0.000119 176.643677 -1.657967 43.431911 180.302734
8 165.484543 71.581718 0.000119 176.643677 -1.657967 43.431911 180.302734
[L_humerus]
7 -13.983130 -135.272980 -120.471481 156.317398 70.210068 -112.010254 181.680161
8 -13.983130 -135.272980 -120.471481 156.317383 70.210045 -112.010246 181.680161
[R_humerus]
7 -13.983309 -135.273102 125.287651 -172.382263 -66.903831 -92.553993 184.909012
8 -13.983309 -135.273102 125.287651 -172.382263 -66.903839 -92.554001 184.909012
[weapon_bone]
7 235.964890 -300.705902 0.000000 0.000000 -89.951546 -128.212341 382.234833
8 235.964890 -300.705902 0.000000 0.000000 -89.951546 -128.212341 382.234833
[Bip01_Head]
7 213.372009 185.916519 9.179930 9.067745 3.281933 -43.888077 283.155151
8 213.372009 185.916519 9.179933 9.067745 3.281934 -43.888084 283.155151
[eye_left_bone]
7 -24.626970 125.451866 -64.772606 0.000000 -90.000000 -99.840431 143.318359
8 -24.626970 125.451866 -64.772606 0.000000 -90.000000 -99.840431 143.318359
[eye_right_bone]
7 -24.626970 125.451866 64.327362 0.000000 -89.965736 80.156380 143.117676
8 -24.626970 125.451866 64.327362 0.000000 -89.965736 80.156380 143.117676
[L_forearm]
7 322.776093 0.000000 -0.000119 0.000119 -0.002344 -95.807457 322.776093
8 322.776093 0.000000 -0.000119 0.000119 -0.002344 -95.807457 322.776093
[L_front_hand]
7 241.149185 -0.042021 -3.300071 -178.667953 -1.835447 -27.422350 241.171753
8 241.149185 -0.042021 -3.300071 -178.667953 -1.835447 -27.422350 241.171753
[L_weapon_bone]
7 156.183838 0.000000 0.000000 0.000014 0.000007 0.000001 156.183838
8 156.183838 0.000000 0.000000 0.000014 0.000007 0.000001 156.183838
[L_front_hand01_01]
7 86.095154 20.947098 -0.655860 -0.366594 -0.477154 75.385574 88.609184
8 86.095154 20.947098 -0.655860 -0.366594 -0.477154 75.385574 88.609184
[L_front_hand02_01]
7 86.935165 -11.437475 24.513514 154.399796 -59.883835 -61.369587 91.046425
8 86.935165 -11.437475 24.513514 154.399796 -59.883835 -61.369587 91.046425
[L_front_hand03_01]
7 86.637497 -14.123976 -20.424902 -153.913849 58.118122 -62.702866 90.126129
8 86.637497 -14.123976 -20.424902 -153.913849 58.118122 -62.702866 90.126129
[L_front_hand01_02]
7 71.020905 -0.000179 0.000030 0.000334 -0.002323 -106.379684 71.020905
8 71.020905 -0.000179 0.000030 0.000334 -0.002323 -106.379684 71.020905
[L_front_hand02_02]
7 71.020927 -0.000119 0.000060 0.000334 -0.002323 -106.379684 71.020927
8 71.020927 -0.000119 0.000060 0.000334 -0.002323 -106.379684 71.020927
[L_front_hand03_02]
7 71.020905 -0.000060 0.000060 0.000334 -0.002323 -106.379684 71.020905
8 71.020905 -0.000060 0.000060 0.000334 -0.002323 -106.379684 71.020905
[R_forearm]
7 322.776428 -0.000060 0.000030 0.209504 0.012586 -94.339050 322.776428
8 322.776428 -0.000060 0.000030 0.209504 0.012586 -94.339050 322.776428
[R_front_hand]
7 238.847015 -0.006795 2.210259 -2.635298 -10.645461 -26.312506 238.857239
8 238.847015 -0.006795 2.210259 -2.635298 -10.645461 -26.312506 238.857239
[R_weapon_bone]
7 155.664093 0.002503 -0.000030 0.003487 0.001180 -90.988930 155.664078
8 155.664093 0.002503 -0.000030 0.003487 0.001180 -90.988930 155.664078
[R_front_hand01_01]
7 87.624611 14.231146 22.918642 -154.633499 -59.950619 61.746044 91.683487
8 87.624611 14.231146 22.918642 -154.633484 -59.950607 61.746037 91.683487
[R_front_hand02_01]
7 89.356956 14.367283 -19.491137 154.602661 58.302849 63.744389 92.579636
8 89.356956 14.367283 -19.491137 154.602661 58.302849 63.744389 92.579636
[R_front_hand03_01]
7 87.286232 -22.307278 -0.143439 0.162155 -0.423168 -75.767921 90.091743
8 87.286232 -22.307278 -0.143439 0.162155 -0.423168 -75.767921 90.091743
[R_front_hand01_02]
7 71.020905 0.000060 0.000119 0.002323 -0.000334 106.381714 71.020905
8 71.020905 0.000060 0.000119 0.002323 -0.000334 106.381721 71.020905
[R_front_hand02_02]
7 71.020844 -0.000030 -0.000119 0.002323 -0.000334 106.381714 71.020836
8 71.020844 -0.000030 -0.000119 0.002323 -0.000334 106.381721 71.020836
[R_front_hand03_02]
7 71.020905 0.000000 0.000030 0.002323 -0.000334 106.381714 71.020905
8 71.020905 0.000000 0.000030 0.002323 -0.000334 106.381721 71.020905
[null_rope01_connect]
7 328.732483 0.000000 -0.000238 -121.867149 -66.548218 170.046249 328.732483
8 328.732483 0.000000 -0.000238 -121.867149 -66.548218 170.046249 328.732483
[Rope1_Seg01]
7 0.000000 0.000000 0.000000 109.657860 3.601581 -169.330429 0.000000
8 0.000000 0.000000 0.000000 108.910751 2.552564 -169.247467 0.000000
[Rope1_Seg02]
7 139.999863 -0.000179 0.000000 13.018970 -15.667705 -8.437613 139.999863
8 139.999863 -0.000179 0.000000 13.248425 -15.641241 -8.991306 139.999863
[Rope1_Seg03]
7 139.999924 0.000060 -0.000060 15.420528 -25.501961 -11.898310 139.999924
8 139.999924 0.000060 -0.000060 16.308563 -26.024508 -13.052160 139.999924
[Rope1_Seg04]
7 139.999924 -0.000060 -0.000119 3.235925 -27.669531 1.140938 139.999924
8 139.999924 -0.000060 -0.000119 3.502233 -27.518866 0.595695 139.999924
[Rope1_Seg05]
7 139.999832 0.000119 -0.000060 -4.224804 -20.838055 15.203161 139.999832
8 139.999832 0.000119 -0.000060 -3.862906 -19.901295 15.496449 139.999832
[Rope1_Seg06]
7 139.999954 0.000119 -0.000060 -2.823439 -9.959957 5.493585 139.999954
8 139.999954 0.000119 -0.000060 -2.560759 -9.811022 5.874063 139.999954
[Rope1_Seg07]
7 139.999985 0.000060 0.000000 -2.028661 -5.284504 2.358382 139.999985
8 139.999985 0.000060 0.000000 -1.873786 -5.252287 2.558628 139.999985
[Rope1_Seg09]
7 121.602913 0.000119 -0.000089 -89.793175 -1.359789 0.847147 121.602913
8 121.602913 0.000119 -0.000089 -89.793175 -1.359789 0.847147 121.602913
[L_mid_hand01]
7 103.859421 1.038730 8.195221 130.544373 -67.584534 -38.866943 104.187431
8 103.859421 1.038730 8.195221 130.544342 -67.584518 -38.866932 104.187431
[L_mid_hand02]
7 105.572853 -4.139662 -10.864139 -168.923172 43.409309 -73.498886 106.211075
8 105.572853 -4.139662 -10.864139 -168.923172 43.409309 -73.498894 106.211075
[L_mid_hand03]
7 104.641464 17.579376 -3.913581 -6.012627 17.808174 74.893669 106.179977
8 104.641464 17.579376 -3.913581 -6.012625 17.808172 74.893669 106.179977
[null_rope02_connect]
7 328.732849 0.000179 -0.000119 -116.101486 27.529917 12.015828 328.732849
8 328.732849 0.000179 -0.000119 -116.101486 27.529913 12.015824 328.732849
[Rope2_Seg01]
7 -0.000038 0.000153 0.000000 -39.636150 1.672310 -2.046794 0.000157
8 -0.000038 0.000153 0.000000 -39.017742 1.116207 -2.246035 0.000157
[Rope2_Seg02]
7 139.999741 -0.000060 -0.000119 -15.545203 5.338487 15.849898 139.999756
8 139.999741 -0.000060 -0.000119 -15.567694 5.533850 15.748084 139.999756
[Rope2_Seg03]
7 140.000107 0.000030 0.000000 -13.997935 0.146368 21.166553 140.000107
8 140.000107 0.000030 0.000000 -14.341133 0.433762 21.488070 140.000107
[Rope2_Seg04]
7 139.999802 0.000000 -0.000060 -6.887599 -4.358014 16.667227 139.999802
8 139.999802 0.000000 -0.000060 -7.130169 -4.373596 17.190884 139.999802
[Rope2_Seg05]
7 139.999985 -0.000060 0.000119 -4.534798 -0.886438 17.527590 139.999985
8 139.999985 -0.000060 0.000119 -4.413112 -0.725462 16.978903 139.999985
[Rope2_Seg06]
7 139.999893 -0.000030 -0.000119 -2.431259 -1.076256 22.862442 139.999893
8 139.999893 -0.000030 -0.000119 -2.488042 -0.647440 21.562704 139.999893
[Rope2_Seg07]
7 139.999893 0.000060 -0.000060 0.462518 -2.186064 15.253740 139.999893
8 139.999893 0.000060 -0.000060 0.155470 -1.973374 14.735408 139.999893
[Rope2_Seg09]
7 121.338966 0.000089 -0.000060 33.793236 -1.359788 -0.847141 121.338966
8 121.338966 0.000089 -0.000060 33.793236 -1.359788 -0.847141 121.338966
[R_mid_hand01]
7 104.680779 11.144459 -10.335981 -16.212063 45.237247 70.462852 105.778534
8 104.680779 11.144459 -10.335981 -16.212061 45.237240 70.462852 105.778534
[R_mid_hand02]
7 104.070427 2.443552 8.231699 49.067368 -67.749771 39.286453 104.424065
8 104.070427 2.443552 8.231699 49.067379 -67.749794 39.286465 104.424065
[R_mid_hand03]
7 106.028137 -11.221827 -5.996406 -177.101105 15.551026 -76.585571 106.788818
8 106.028137 -11.221827 -5.996406 -177.101105 15.551026 -76.585571 106.788818
[spine02]
7 129.756927 0.001550 0.000119 -1.023899 -3.926965 6.770993 129.756927
8 129.756927 0.001550 0.000119 -1.023899 -3.926965 6.770993 129.756927
[spine03]
7 78.613846 0.087372 -4.898873 1.040681 4.146420 4.212376 78.766380
8 78.613846 0.087372 -4.898873 1.040680 4.146419 4.212375 78.766380
[pelvis]
7 169.435242 0.051022 0.000000 0.019518 -0.190233 -10.721436 169.435257
8 169.435242 0.051022 0.000000 0.019518 -0.190233 -10.721436 169.435257
[null_rope03_connect]
7 -1.257226 -2.466202 137.391083 46.458321 -77.110146 49.356079 137.418976
8 -1.257226 -2.466202 137.391083 46.458321 -77.110146 49.356079 137.418976
[null_rope04_connect]
7 -1.259640 -2.480268 -137.844437 46.458321 -77.110146 49.356079 137.872513
8 -1.259640 -2.480268 -137.844437 46.458321 -77.110146 49.356079 137.872513
[Rope3_Seg01]
7 0.000000 0.000000 0.000000 -149.431335 -78.548950 -71.675209 0.000000
8 0.000000 0.000000 0.000000 -149.172577 -78.654343 -71.973114 0.000000
[Rope3_Seg02]
7 139.999924 -0.000119 0.000060 -0.462337 -5.041628 -12.029938 139.999924
8 139.999924 -0.000119 0.000060 -0.393059 -5.143181 -11.948496 139.999924
[Rope3_Seg03]
7 139.999924 -0.000119 0.000119 -1.514605 -5.831590 -13.947062 139.999924
8 139.999924 -0.000119 0.000119 -1.385476 -6.078501 -14.126711 139.999924
[Rope3_Seg04]
7 139.999924 0.000119 0.000000 1.367671 -7.614562 -10.916617 139.999924
8 139.999924 0.000119 0.000000 1.676349 -8.040462 -11.315195 139.999924
[Rope3_Seg05]
7 139.999924 -0.000238 0.000060 -8.552327 -2.267845 -10.409538 139.999924
8 139.999924 -0.000238 0.000060 -9.196332 -2.425121 -10.747882 139.999924
[Rope3_Seg06]
7 139.999893 -0.000119 -0.000060 -65.160904 7.677577 -22.152441 139.999893
8 139.999893 -0.000119 -0.000060 -69.661354 8.222446 -22.770355 139.999893
[Rope3_Seg07]
7 139.999771 0.000060 -0.000119 -37.317036 31.968536 -3.838540 139.999771
8 139.999771 0.000060 -0.000119 -33.070480 31.985518 -0.791362 139.999771
[Rope3_Seg08]
7 139.999985 -0.000060 0.000000 -4.027257 14.497371 7.647435 139.999985
8 139.999985 -0.000060 0.000000 -3.492958 14.007839 7.854981 139.999985
[Rope3_Seg09]
7 90.185997 -0.000179 -0.000060 89.793228 -1.359877 -0.847183 90.185997
8 90.185997 -0.000179 -0.000060 89.793228 -1.359877 -0.847183 90.185997
[R_rear_hand01]
7 103.366196 -6.073594 -10.757982 -177.714203 24.565960 -73.910950 104.101845
8 103.366196 -6.073594 -10.757982 -177.714203 24.565960 -73.910950 104.101845
[R_rear_hand02]
7 100.509819 12.039542 -7.992327 -12.874829 36.868488 72.167213 101.543350
8 100.509819 12.039542 -7.992327 -12.874829 36.868488 72.167213 101.543350
[R_rear_hand03]
7 101.539970 5.215704 5.435467 71.484581 -71.816628 21.513813 101.819031
8 101.539970 5.215704 5.435467 71.484581 -71.816628 21.513813 101.819031
[Rope4_Seg01]
7 0.000021 -0.000114 -0.000153 67.588226 -40.893719 -125.510834 0.000192
8 0.000020 -0.000114 -0.000153 67.614021 -40.814674 -125.612427 0.000192
[Rope4_Seg02]
7 139.999985 0.000060 0.000119 2.514243 -13.271856 -3.128242 139.999985
8 139.999985 0.000060 0.000119 2.521966 -13.250422 -3.109785 139.999985
[Rope4_Seg03]
7 139.999924 0.000000 -0.000238 10.136868 -22.271406 -4.741222 139.999924
8 139.999924 0.000000 -0.000238 10.175057 -22.232046 -4.684325 139.999924
[Rope4_Seg04]
7 139.999985 0.000000 0.000119 58.800110 -23.670855 -2.644484 139.999985
8 139.999985 0.000000 0.000119 58.960358 -23.699547 -2.447337 139.999985
[Rope4_Seg05]
7 139.999802 -0.000060 -0.000119 67.553673 -9.171906 17.410952 139.999802
8 139.999802 -0.000060 -0.000119 67.167534 -9.216054 17.478760 139.999802
[Rope4_Seg06]
7 139.999924 0.000000 0.000060 14.615354 23.347939 22.884468 139.999924
8 139.999924 0.000000 0.000060 14.856841 22.592272 22.781025 139.999924
[Rope4_Seg07]
7 139.999802 0.000000 0.000000 4.012322 18.889015 13.182588 139.999802
8 139.999802 0.000000 0.000000 4.022758 18.395510 13.018176 139.999802
[Rope4_Seg08]
7 139.999924 0.000000 0.000119 -0.803199 8.338487 5.390077 139.999924
8 139.999924 0.000000 0.000119 -0.776689 8.244475 5.382383 139.999924
[Rope4_Seg09]
7 90.185791 0.000060 0.000060 -135.617828 2.228885 0.850567 90.185791
8 90.185791 0.000060 0.000060 -135.617828 2.228885 0.850567 90.185791
[L_rear_hand01]
7 101.696655 -8.392275 -7.654577 -12.874829 -36.868488 107.832764 102.329041
8 101.696655 -8.392275 -7.654577 -12.874829 -36.868488 107.832764 102.329041
[L_rear_hand02]
7 102.726799 -1.568258 5.773216 71.484581 71.816628 158.486160 102.900848
8 102.726799 -1.568258 5.773216 71.484581 71.816628 158.486160 102.900848
[L_rear_hand03]
7 104.552910 9.721220 -10.420293 -177.714203 -24.565960 -106.089035 105.519653
8 104.552910 9.721220 -10.420293 -177.714203 -24.565960 -106.089035 105.519653
